<?xml version="1.0" encoding="utf-8" standalone="no"?>
<!DOCTYPE svg PUBLIC "-//W3C//DTD SVG 1.1//EN"
  "http://www.w3.org/Graphics/SVG/1.1/DTD/svg11.dtd">
<svg xmlns:xlink="http://www.w3.org/1999/xlink" width="290.817722pt" height="315.388635pt" viewBox="0 0 290.817722 315.388635" xmlns="http://www.w3.org/2000/svg" version="1.1">
 <metadata>
  <rdf:RDF xmlns:dc="http://purl.org/dc/elements/1.1/" xmlns:cc="http://creativecommons.org/ns#" xmlns:rdf="http://www.w3.org/1999/02/22-rdf-syntax-ns#">
   <cc:Work>
    <dc:type rdf:resource="http://purl.org/dc/dcmitype/StillImage"/>
    <dc:date>2026-07-30T17:41:37.243461</dc:date>
    <dc:format>image/svg+xml</dc:format>
    <dc:creator>
     <cc:Agent>
      <dc:title>Matplotlib v3.8.4, https://matplotlib.org/</dc:title>
     </cc:Agent>
    </dc:creator>
   </cc:Work>
  </rdf:RDF>
 </metadata>
 <defs>
  <style type="text/css">*{stroke-linejoin: round; stroke-linecap: butt}</style>
 </defs>
 <g id="figure_1">
  <g id="patch_1">
   <path d="M 0 315.388635 
L 290.817722 315.388635 
L 290.817722 0 
L 0 0 
z
" style="fill: #ffffff"/>
  </g>
  <g id="axes_1">
   <g id="patch_2">
    <path d="M 110.602203 61.158593 
L 282.182203 61.158593 
L 282.182203 31.443264 
L 110.602203 31.443264 
z
" style="fill: #ffffff"/>
   </g>
   <g id="matplotlib.axis_1">
    <g id="xtick_1"/>
    <g id="xtick_2"/>
    <g id="xtick_3"/>
   </g>
   <g id="matplotlib.axis_2">
    <g id="ytick_1">
     <g id="line2d_1">
      <defs>
       <path id="m71a242a898" d="M 0 0 
L -2.2 0 
" style="stroke: #000000; stroke-width: 0.7"/>
      </defs>
      <g>
       <use xlink:href="#m71a242a898" x="110.602203" y="61.158593" style="stroke: #000000; stroke-width: 0.7"/>
      </g>
     </g>
     <g id="text_1">
      <!-- 0 -->
      <g transform="translate(102.398328 63.735406) scale(0.072 -0.072)">
       <defs>
        <path id="ArialMT-30" d="M 266 2259 
Q 266 3072 433 3567 
Q 600 4063 929 4331 
Q 1259 4600 1759 4600 
Q 2128 4600 2406 4451 
Q 2684 4303 2865 4023 
Q 3047 3744 3150 3342 
Q 3253 2941 3253 2259 
Q 3253 1453 3087 958 
Q 2922 463 2592 192 
Q 2263 -78 1759 -78 
Q 1097 -78 719 397 
Q 266 969 266 2259 
z
M 844 2259 
Q 844 1131 1108 757 
Q 1372 384 1759 384 
Q 2147 384 2411 759 
Q 2675 1134 2675 2259 
Q 2675 3391 2411 3762 
Q 2147 4134 1753 4134 
Q 1366 4134 1134 3806 
Q 844 3388 844 2259 
z
" transform="scale(0.015625)"/>
       </defs>
       <use xlink:href="#ArialMT-30"/>
      </g>
     </g>
    </g>
    <g id="ytick_2">
     <g id="line2d_2">
      <g>
       <use xlink:href="#m71a242a898" x="110.602203" y="31.443264" style="stroke: #000000; stroke-width: 0.7"/>
      </g>
     </g>
     <g id="text_2">
      <!-- 21.5 -->
      <g transform="translate(92.390328 34.020076) scale(0.072 -0.072)">
       <defs>
        <path id="ArialMT-32" d="M 3222 541 
L 3222 0 
L 194 0 
Q 188 203 259 391 
Q 375 700 629 1000 
Q 884 1300 1366 1694 
Q 2113 2306 2375 2664 
Q 2638 3022 2638 3341 
Q 2638 3675 2398 3904 
Q 2159 4134 1775 4134 
Q 1369 4134 1125 3890 
Q 881 3647 878 3216 
L 300 3275 
Q 359 3922 746 4261 
Q 1134 4600 1788 4600 
Q 2447 4600 2831 4234 
Q 3216 3869 3216 3328 
Q 3216 3053 3103 2787 
Q 2991 2522 2730 2228 
Q 2469 1934 1863 1422 
Q 1356 997 1212 845 
Q 1069 694 975 541 
L 3222 541 
z
" transform="scale(0.015625)"/>
        <path id="ArialMT-31" d="M 2384 0 
L 1822 0 
L 1822 3584 
Q 1619 3391 1289 3197 
Q 959 3003 697 2906 
L 697 3450 
Q 1169 3672 1522 3987 
Q 1875 4303 2022 4600 
L 2384 4600 
L 2384 0 
z
" transform="scale(0.015625)"/>
        <path id="ArialMT-2e" d="M 581 0 
L 581 641 
L 1222 641 
L 1222 0 
L 581 0 
z
" transform="scale(0.015625)"/>
        <path id="ArialMT-35" d="M 266 1200 
L 856 1250 
Q 922 819 1161 601 
Q 1400 384 1738 384 
Q 2144 384 2425 690 
Q 2706 997 2706 1503 
Q 2706 1984 2436 2262 
Q 2166 2541 1728 2541 
Q 1456 2541 1237 2417 
Q 1019 2294 894 2097 
L 366 2166 
L 809 4519 
L 3088 4519 
L 3088 3981 
L 1259 3981 
L 1013 2750 
Q 1425 3038 1878 3038 
Q 2478 3038 2890 2622 
Q 3303 2206 3303 1553 
Q 3303 931 2941 478 
Q 2500 -78 1738 -78 
Q 1113 -78 717 272 
Q 322 622 266 1200 
z
" transform="scale(0.015625)"/>
       </defs>
       <use xlink:href="#ArialMT-32"/>
       <use xlink:href="#ArialMT-31" x="55.615234"/>
       <use xlink:href="#ArialMT-2e" x="111.230469"/>
       <use xlink:href="#ArialMT-35" x="139.013672"/>
      </g>
     </g>
    </g>
    <g id="text_3">
     <!-- H3, DMSO 24 h -->
     <g transform="translate(13.987359 48.550015) scale(0.087 -0.087)">
      <defs>
       <path id="ArialMT-48" d="M 513 0 
L 513 4581 
L 1119 4581 
L 1119 2700 
L 3500 2700 
L 3500 4581 
L 4106 4581 
L 4106 0 
L 3500 0 
L 3500 2159 
L 1119 2159 
L 1119 0 
L 513 0 
z
" transform="scale(0.015625)"/>
       <path id="ArialMT-33" d="M 269 1209 
L 831 1284 
Q 928 806 1161 595 
Q 1394 384 1728 384 
Q 2125 384 2398 659 
Q 2672 934 2672 1341 
Q 2672 1728 2419 1979 
Q 2166 2231 1775 2231 
Q 1616 2231 1378 2169 
L 1441 2663 
Q 1497 2656 1531 2656 
Q 1891 2656 2178 2843 
Q 2466 3031 2466 3422 
Q 2466 3731 2256 3934 
Q 2047 4138 1716 4138 
Q 1388 4138 1169 3931 
Q 950 3725 888 3313 
L 325 3413 
Q 428 3978 793 4289 
Q 1159 4600 1703 4600 
Q 2078 4600 2393 4439 
Q 2709 4278 2876 4000 
Q 3044 3722 3044 3409 
Q 3044 3113 2884 2869 
Q 2725 2625 2413 2481 
Q 2819 2388 3044 2092 
Q 3269 1797 3269 1353 
Q 3269 753 2831 336 
Q 2394 -81 1725 -81 
Q 1122 -81 723 278 
Q 325 638 269 1209 
z
" transform="scale(0.015625)"/>
       <path id="ArialMT-2c" d="M 569 0 
L 569 641 
L 1209 641 
L 1209 0 
Q 1209 -353 1084 -570 
Q 959 -788 688 -906 
L 531 -666 
Q 709 -588 793 -436 
Q 878 -284 888 0 
L 569 0 
z
" transform="scale(0.015625)"/>
       <path id="ArialMT-20" transform="scale(0.015625)"/>
       <path id="ArialMT-44" d="M 494 0 
L 494 4581 
L 2072 4581 
Q 2606 4581 2888 4516 
Q 3281 4425 3559 4188 
Q 3922 3881 4101 3404 
Q 4281 2928 4281 2316 
Q 4281 1794 4159 1391 
Q 4038 988 3847 723 
Q 3656 459 3429 307 
Q 3203 156 2883 78 
Q 2563 0 2147 0 
L 494 0 
z
M 1100 541 
L 2078 541 
Q 2531 541 2789 625 
Q 3047 709 3200 863 
Q 3416 1078 3536 1442 
Q 3656 1806 3656 2325 
Q 3656 3044 3420 3430 
Q 3184 3816 2847 3947 
Q 2603 4041 2063 4041 
L 1100 4041 
L 1100 541 
z
" transform="scale(0.015625)"/>
       <path id="ArialMT-4d" d="M 475 0 
L 475 4581 
L 1388 4581 
L 2472 1338 
Q 2622 884 2691 659 
Q 2769 909 2934 1394 
L 4031 4581 
L 4847 4581 
L 4847 0 
L 4263 0 
L 4263 3834 
L 2931 0 
L 2384 0 
L 1059 3900 
L 1059 0 
L 475 0 
z
" transform="scale(0.015625)"/>
       <path id="ArialMT-53" d="M 288 1472 
L 859 1522 
Q 900 1178 1048 958 
Q 1197 738 1509 602 
Q 1822 466 2213 466 
Q 2559 466 2825 569 
Q 3091 672 3220 851 
Q 3350 1031 3350 1244 
Q 3350 1459 3225 1620 
Q 3100 1781 2813 1891 
Q 2628 1963 1997 2114 
Q 1366 2266 1113 2400 
Q 784 2572 623 2826 
Q 463 3081 463 3397 
Q 463 3744 659 4045 
Q 856 4347 1234 4503 
Q 1613 4659 2075 4659 
Q 2584 4659 2973 4495 
Q 3363 4331 3572 4012 
Q 3781 3694 3797 3291 
L 3216 3247 
Q 3169 3681 2898 3903 
Q 2628 4125 2100 4125 
Q 1550 4125 1298 3923 
Q 1047 3722 1047 3438 
Q 1047 3191 1225 3031 
Q 1400 2872 2139 2705 
Q 2878 2538 3153 2413 
Q 3553 2228 3743 1945 
Q 3934 1663 3934 1294 
Q 3934 928 3725 604 
Q 3516 281 3123 101 
Q 2731 -78 2241 -78 
Q 1619 -78 1198 103 
Q 778 284 539 648 
Q 300 1013 288 1472 
z
" transform="scale(0.015625)"/>
       <path id="ArialMT-4f" d="M 309 2231 
Q 309 3372 921 4017 
Q 1534 4663 2503 4663 
Q 3138 4663 3647 4359 
Q 4156 4056 4423 3514 
Q 4691 2972 4691 2284 
Q 4691 1588 4409 1038 
Q 4128 488 3612 205 
Q 3097 -78 2500 -78 
Q 1853 -78 1343 234 
Q 834 547 571 1087 
Q 309 1628 309 2231 
z
M 934 2222 
Q 934 1394 1379 917 
Q 1825 441 2497 441 
Q 3181 441 3623 922 
Q 4066 1403 4066 2288 
Q 4066 2847 3877 3264 
Q 3688 3681 3323 3911 
Q 2959 4141 2506 4141 
Q 1863 4141 1398 3698 
Q 934 3256 934 2222 
z
" transform="scale(0.015625)"/>
       <path id="ArialMT-34" d="M 2069 0 
L 2069 1097 
L 81 1097 
L 81 1613 
L 2172 4581 
L 2631 4581 
L 2631 1613 
L 3250 1613 
L 3250 1097 
L 2631 1097 
L 2631 0 
L 2069 0 
z
M 2069 1613 
L 2069 3678 
L 634 1613 
L 2069 1613 
z
" transform="scale(0.015625)"/>
       <path id="ArialMT-68" d="M 422 0 
L 422 4581 
L 984 4581 
L 984 2938 
Q 1378 3394 1978 3394 
Q 2347 3394 2619 3248 
Q 2891 3103 3008 2847 
Q 3125 2591 3125 2103 
L 3125 0 
L 2563 0 
L 2563 2103 
Q 2563 2525 2380 2717 
Q 2197 2909 1863 2909 
Q 1613 2909 1392 2779 
Q 1172 2650 1078 2428 
Q 984 2206 984 1816 
L 984 0 
L 422 0 
z
" transform="scale(0.015625)"/>
      </defs>
      <use xlink:href="#ArialMT-48"/>
      <use xlink:href="#ArialMT-33" x="72.216797"/>
      <use xlink:href="#ArialMT-2c" x="127.832031"/>
      <use xlink:href="#ArialMT-20" x="155.615234"/>
      <use xlink:href="#ArialMT-44" x="183.398438"/>
      <use xlink:href="#ArialMT-4d" x="255.615234"/>
      <use xlink:href="#ArialMT-53" x="338.916016"/>
      <use xlink:href="#ArialMT-4f" x="405.615234"/>
      <use xlink:href="#ArialMT-20" x="483.398438"/>
      <use xlink:href="#ArialMT-32" x="511.181641"/>
      <use xlink:href="#ArialMT-34" x="566.796875"/>
      <use xlink:href="#ArialMT-20" x="622.412109"/>
      <use xlink:href="#ArialMT-68" x="650.195312"/>
     </g>
    </g>
   </g>
   <g id="line2d_3">
    <path d="M 118.401294 60.859657 
L 120.375747 60.83782 
L 122.350201 60.81613 
L 124.324654 60.816913 
L 126.299108 60.804727 
L 128.273561 60.774329 
L 130.248014 60.747927 
L 132.222468 60.720718 
L 134.196921 60.669237 
L 136.171375 60.646902 
L 138.145828 60.648694 
L 140.120281 60.641664 
L 142.094735 60.644556 
L 144.069188 60.629564 
L 146.043642 60.603083 
L 148.018095 60.581747 
L 149.992548 60.556893 
L 151.967002 60.532069 
L 153.941455 60.4769 
L 155.915909 60.476351 
L 157.890362 60.470356 
L 159.864815 60.45107 
L 161.839269 60.443426 
L 163.813722 60.43642 
L 165.788176 60.456215 
L 167.762629 60.458382 
L 169.737082 60.424649 
L 171.711536 60.380306 
L 173.685989 60.377985 
L 175.660442 60.313633 
L 177.634896 60.293672 
L 179.609349 60.274916 
L 181.583803 60.245957 
L 183.558256 60.231938 
L 185.532709 60.244326 
L 187.507163 60.206902 
L 189.481616 60.20553 
L 191.45607 60.262416 
L 193.430523 60.265326 
L 195.404976 60.265081 
L 197.37943 60.268861 
L 199.353883 60.315578 
L 201.328337 60.317553 
L 203.30279 60.323675 
L 205.277243 60.355807 
L 207.251697 60.354017 
L 209.22615 60.352491 
L 211.200604 60.371465 
L 213.175057 60.372863 
L 215.14951 60.400688 
L 217.123964 60.439212 
L 219.098417 60.448979 
L 221.072871 60.454022 
L 223.047324 60.464686 
L 225.021777 60.480965 
L 226.996231 60.506437 
L 228.970684 60.512015 
L 230.945138 60.512516 
L 232.919591 60.533056 
L 234.894044 60.549956 
L 236.868498 60.580634 
L 238.842951 60.579648 
L 240.817405 60.602137 
L 242.791858 60.650034 
L 244.766311 60.646718 
L 246.740765 60.679501 
L 248.715218 60.693642 
L 250.689671 60.687302 
L 252.664125 60.698477 
L 254.638578 60.709199 
L 256.613032 60.710321 
L 258.587485 60.721679 
L 260.561938 60.73504 
L 262.536392 60.736115 
L 264.510845 60.726548 
L 266.485299 60.701726 
L 268.459752 60.693499 
L 270.434205 60.729329 
L 272.408659 60.738429 
L 274.383112 60.736884 
" clip-path="url(#p9707d7ec15)" style="fill: none; stroke: #3a3a3a; stroke-width: 1.35; stroke-linecap: square"/>
   </g>
   <g id="line2d_4">
    <path d="M 197.37943 61.158593 
L 197.37943 31.443264 
" clip-path="url(#p9707d7ec15)" style="fill: none; stroke-dasharray: 1.3,1.3; stroke-dashoffset: 0; stroke: #777777; stroke-width: 0.65"/>
   </g>
   <g id="patch_3">
    <path d="M 110.602203 61.158593 
L 110.602203 31.443264 
" style="fill: none; stroke: #000000; stroke-width: 0.8; stroke-linejoin: miter; stroke-linecap: square"/>
   </g>
   <g id="text_4">
    <!-- CPM -->
    <g transform="translate(92.028753 26.149271) scale(0.072 -0.072)">
     <defs>
      <path id="ArialMT-43" d="M 3763 1606 
L 4369 1453 
Q 4178 706 3683 314 
Q 3188 -78 2472 -78 
Q 1731 -78 1267 223 
Q 803 525 561 1097 
Q 319 1669 319 2325 
Q 319 3041 592 3573 
Q 866 4106 1370 4382 
Q 1875 4659 2481 4659 
Q 3169 4659 3637 4309 
Q 4106 3959 4291 3325 
L 3694 3184 
Q 3534 3684 3231 3912 
Q 2928 4141 2469 4141 
Q 1941 4141 1586 3887 
Q 1231 3634 1087 3207 
Q 944 2781 944 2328 
Q 944 1744 1114 1308 
Q 1284 872 1643 656 
Q 2003 441 2422 441 
Q 2931 441 3284 734 
Q 3638 1028 3763 1606 
z
" transform="scale(0.015625)"/>
      <path id="ArialMT-50" d="M 494 0 
L 494 4581 
L 2222 4581 
Q 2678 4581 2919 4538 
Q 3256 4481 3484 4323 
Q 3713 4166 3852 3881 
Q 3991 3597 3991 3256 
Q 3991 2672 3619 2267 
Q 3247 1863 2275 1863 
L 1100 1863 
L 1100 0 
L 494 0 
z
M 1100 2403 
L 2284 2403 
Q 2872 2403 3119 2622 
Q 3366 2841 3366 3238 
Q 3366 3525 3220 3729 
Q 3075 3934 2838 4000 
Q 2684 4041 2272 4041 
L 1100 4041 
L 1100 2403 
z
" transform="scale(0.015625)"/>
     </defs>
     <use xlink:href="#ArialMT-43"/>
     <use xlink:href="#ArialMT-50" x="72.216797"/>
     <use xlink:href="#ArialMT-4d" x="138.916016"/>
    </g>
   </g>
  </g>
  <g id="axes_2">
   <g id="patch_4">
    <path d="M 110.602203 105.769427 
L 282.182203 105.769427 
L 282.182203 76.054097 
L 110.602203 76.054097 
z
" style="fill: #ffffff"/>
   </g>
   <g id="matplotlib.axis_3">
    <g id="xtick_4"/>
    <g id="xtick_5"/>
    <g id="xtick_6"/>
   </g>
   <g id="matplotlib.axis_4">
    <g id="ytick_3">
     <g id="line2d_5">
      <g>
       <use xlink:href="#m71a242a898" x="110.602203" y="105.769427" style="stroke: #000000; stroke-width: 0.7"/>
      </g>
     </g>
     <g id="text_5">
      <!-- 0 -->
      <g transform="translate(102.398328 108.346239) scale(0.072 -0.072)">
       <use xlink:href="#ArialMT-30"/>
      </g>
     </g>
    </g>
    <g id="ytick_4">
     <g id="line2d_6">
      <g>
       <use xlink:href="#m71a242a898" x="110.602203" y="76.054097" style="stroke: #000000; stroke-width: 0.7"/>
      </g>
     </g>
     <g id="text_6">
      <!-- 21.5 -->
      <g transform="translate(92.390328 78.63091) scale(0.072 -0.072)">
       <use xlink:href="#ArialMT-32"/>
       <use xlink:href="#ArialMT-31" x="55.615234"/>
       <use xlink:href="#ArialMT-2e" x="111.230469"/>
       <use xlink:href="#ArialMT-35" x="139.013672"/>
      </g>
     </g>
    </g>
    <g id="text_7">
     <!-- H4, DMSO 24 h -->
     <g transform="translate(13.987359 93.160848) scale(0.087 -0.087)">
      <use xlink:href="#ArialMT-48"/>
      <use xlink:href="#ArialMT-34" x="72.216797"/>
      <use xlink:href="#ArialMT-2c" x="127.832031"/>
      <use xlink:href="#ArialMT-20" x="155.615234"/>
      <use xlink:href="#ArialMT-44" x="183.398438"/>
      <use xlink:href="#ArialMT-4d" x="255.615234"/>
      <use xlink:href="#ArialMT-53" x="338.916016"/>
      <use xlink:href="#ArialMT-4f" x="405.615234"/>
      <use xlink:href="#ArialMT-20" x="483.398438"/>
      <use xlink:href="#ArialMT-32" x="511.181641"/>
      <use xlink:href="#ArialMT-34" x="566.796875"/>
      <use xlink:href="#ArialMT-20" x="622.412109"/>
      <use xlink:href="#ArialMT-68" x="650.195312"/>
     </g>
    </g>
   </g>
   <g id="line2d_7">
    <path d="M 118.401294 99.954999 
L 120.375747 99.525494 
L 122.350201 98.929886 
L 124.324654 98.417403 
L 126.299108 97.710072 
L 128.273561 97.061216 
L 130.248014 96.154709 
L 132.222468 95.119512 
L 134.196921 94.143146 
L 136.171375 93.552072 
L 138.145828 92.500309 
L 140.120281 91.056338 
L 142.094735 90.259972 
L 144.069188 89.781047 
L 146.043642 89.080538 
L 148.018095 87.802203 
L 149.992548 86.39416 
L 151.967002 85.971666 
L 153.941455 85.029712 
L 155.915909 84.25599 
L 157.890362 83.614128 
L 159.864815 82.62567 
L 161.839269 82.021592 
L 163.813722 81.635336 
L 165.788176 80.970086 
L 167.762629 80.364738 
L 169.737082 79.792172 
L 171.711536 79.316225 
L 173.685989 78.661155 
L 175.660442 78.295072 
L 177.634896 77.897378 
L 179.609349 78.107744 
L 181.583803 77.744693 
L 183.558256 77.66752 
L 185.532709 77.873234 
L 187.507163 77.730485 
L 189.481616 77.63751 
L 191.45607 78.294724 
L 193.430523 78.698919 
L 195.404976 79.905375 
L 197.37943 82.273143 
L 199.353883 83.392532 
L 201.328337 84.56541 
L 203.30279 85.746783 
L 205.277243 87.323503 
L 207.251697 88.759074 
L 209.22615 89.789476 
L 211.200604 90.932294 
L 213.175057 92.349463 
L 215.14951 93.366787 
L 217.123964 94.442572 
L 219.098417 95.399517 
L 221.072871 96.203527 
L 223.047324 96.897212 
L 225.021777 97.564236 
L 226.996231 98.11492 
L 228.970684 98.886155 
L 230.945138 99.374144 
L 232.919591 99.799412 
L 234.894044 100.317768 
L 236.868498 100.623165 
L 238.842951 101.012373 
L 240.817405 101.515505 
L 242.791858 101.836988 
L 244.766311 101.834136 
L 246.740765 102.004942 
L 248.715218 102.121224 
L 250.689671 102.173777 
L 252.664125 102.044893 
L 254.638578 102.11605 
L 256.613032 102.300571 
L 258.587485 102.365917 
L 260.561938 102.394894 
L 262.536392 102.428648 
L 264.510845 102.21849 
L 266.485299 101.958331 
L 268.459752 101.893026 
L 270.434205 101.774875 
L 272.408659 101.762365 
L 274.383112 101.749168 
" clip-path="url(#pbd7dce8e9e)" style="fill: none; stroke: #3a3a3a; stroke-width: 1.35; stroke-linecap: square"/>
   </g>
   <g id="line2d_8">
    <path d="M 197.37943 105.769427 
L 197.37943 76.054097 
" clip-path="url(#pbd7dce8e9e)" style="fill: none; stroke-dasharray: 1.3,1.3; stroke-dashoffset: 0; stroke: #777777; stroke-width: 0.65"/>
   </g>
   <g id="patch_5">
    <path d="M 110.602203 105.769427 
L 110.602203 76.054097 
" style="fill: none; stroke: #000000; stroke-width: 0.8; stroke-linejoin: miter; stroke-linecap: square"/>
   </g>
  </g>
  <g id="axes_3">
   <g id="patch_6">
    <path d="M 110.602203 150.38026 
L 282.182203 150.38026 
L 282.182203 120.664931 
L 110.602203 120.664931 
z
" style="fill: #ffffff"/>
   </g>
   <g id="matplotlib.axis_5">
    <g id="xtick_7"/>
    <g id="xtick_8"/>
    <g id="xtick_9"/>
   </g>
   <g id="matplotlib.axis_6">
    <g id="ytick_5">
     <g id="line2d_9">
      <g>
       <use xlink:href="#m71a242a898" x="110.602203" y="150.38026" style="stroke: #000000; stroke-width: 0.7"/>
      </g>
     </g>
     <g id="text_8">
      <!-- 0 -->
      <g transform="translate(102.398328 152.957072) scale(0.072 -0.072)">
       <use xlink:href="#ArialMT-30"/>
      </g>
     </g>
    </g>
    <g id="ytick_6">
     <g id="line2d_10">
      <g>
       <use xlink:href="#m71a242a898" x="110.602203" y="120.664931" style="stroke: #000000; stroke-width: 0.7"/>
      </g>
     </g>
     <g id="text_9">
      <!-- 21.5 -->
      <g transform="translate(92.390328 123.241743) scale(0.072 -0.072)">
       <use xlink:href="#ArialMT-32"/>
       <use xlink:href="#ArialMT-31" x="55.615234"/>
       <use xlink:href="#ArialMT-2e" x="111.230469"/>
       <use xlink:href="#ArialMT-35" x="139.013672"/>
      </g>
     </g>
    </g>
    <g id="text_10">
     <!-- H4, GSK591 24 h -->
     <g transform="translate(7.2 137.771681) scale(0.087 -0.087)">
      <defs>
       <path id="ArialMT-47" d="M 2638 1797 
L 2638 2334 
L 4578 2338 
L 4578 638 
Q 4131 281 3656 101 
Q 3181 -78 2681 -78 
Q 2006 -78 1454 211 
Q 903 500 622 1047 
Q 341 1594 341 2269 
Q 341 2938 620 3517 
Q 900 4097 1425 4378 
Q 1950 4659 2634 4659 
Q 3131 4659 3532 4498 
Q 3934 4338 4162 4050 
Q 4391 3763 4509 3300 
L 3963 3150 
Q 3859 3500 3706 3700 
Q 3553 3900 3268 4020 
Q 2984 4141 2638 4141 
Q 2222 4141 1919 4014 
Q 1616 3888 1430 3681 
Q 1244 3475 1141 3228 
Q 966 2803 966 2306 
Q 966 1694 1177 1281 
Q 1388 869 1791 669 
Q 2194 469 2647 469 
Q 3041 469 3416 620 
Q 3791 772 3984 944 
L 3984 1797 
L 2638 1797 
z
" transform="scale(0.015625)"/>
       <path id="ArialMT-4b" d="M 469 0 
L 469 4581 
L 1075 4581 
L 1075 2309 
L 3350 4581 
L 4172 4581 
L 2250 2725 
L 4256 0 
L 3456 0 
L 1825 2319 
L 1075 1588 
L 1075 0 
L 469 0 
z
" transform="scale(0.015625)"/>
       <path id="ArialMT-39" d="M 350 1059 
L 891 1109 
Q 959 728 1153 556 
Q 1347 384 1650 384 
Q 1909 384 2104 503 
Q 2300 622 2425 820 
Q 2550 1019 2634 1356 
Q 2719 1694 2719 2044 
Q 2719 2081 2716 2156 
Q 2547 1888 2255 1720 
Q 1963 1553 1622 1553 
Q 1053 1553 659 1965 
Q 266 2378 266 3053 
Q 266 3750 677 4175 
Q 1088 4600 1706 4600 
Q 2153 4600 2523 4359 
Q 2894 4119 3086 3673 
Q 3278 3228 3278 2384 
Q 3278 1506 3087 986 
Q 2897 466 2520 194 
Q 2144 -78 1638 -78 
Q 1100 -78 759 220 
Q 419 519 350 1059 
z
M 2653 3081 
Q 2653 3566 2395 3850 
Q 2138 4134 1775 4134 
Q 1400 4134 1122 3828 
Q 844 3522 844 3034 
Q 844 2597 1108 2323 
Q 1372 2050 1759 2050 
Q 2150 2050 2401 2323 
Q 2653 2597 2653 3081 
z
" transform="scale(0.015625)"/>
      </defs>
      <use xlink:href="#ArialMT-48"/>
      <use xlink:href="#ArialMT-34" x="72.216797"/>
      <use xlink:href="#ArialMT-2c" x="127.832031"/>
      <use xlink:href="#ArialMT-20" x="155.615234"/>
      <use xlink:href="#ArialMT-47" x="183.398438"/>
      <use xlink:href="#ArialMT-53" x="261.181641"/>
      <use xlink:href="#ArialMT-4b" x="327.880859"/>
      <use xlink:href="#ArialMT-35" x="394.580078"/>
      <use xlink:href="#ArialMT-39" x="450.195312"/>
      <use xlink:href="#ArialMT-31" x="505.810547"/>
      <use xlink:href="#ArialMT-20" x="561.425781"/>
      <use xlink:href="#ArialMT-32" x="589.208984"/>
      <use xlink:href="#ArialMT-34" x="644.824219"/>
      <use xlink:href="#ArialMT-20" x="700.439453"/>
      <use xlink:href="#ArialMT-68" x="728.222656"/>
     </g>
    </g>
   </g>
   <g id="line2d_11">
    <path d="M 118.401294 146.106608 
L 120.375747 145.825967 
L 122.350201 145.279509 
L 124.324654 144.94693 
L 126.299108 144.413519 
L 128.273561 143.894288 
L 130.248014 143.173556 
L 132.222468 142.408184 
L 134.196921 141.513133 
L 136.171375 140.854383 
L 138.145828 140.307426 
L 140.120281 139.470201 
L 142.094735 138.59796 
L 144.069188 138.035788 
L 146.043642 137.376374 
L 148.018095 136.503777 
L 149.992548 135.363172 
L 151.967002 134.745889 
L 153.941455 133.788164 
L 155.915909 132.902482 
L 157.890362 132.235219 
L 159.864815 131.100274 
L 161.839269 130.080844 
L 163.813722 129.393053 
L 165.788176 128.417737 
L 167.762629 127.390711 
L 169.737082 126.651217 
L 171.711536 125.756861 
L 173.685989 125.106919 
L 175.660442 124.93795 
L 177.634896 125.220828 
L 179.609349 125.982853 
L 181.583803 126.069266 
L 183.558256 126.65346 
L 185.532709 127.049945 
L 187.507163 127.195068 
L 189.481616 127.714429 
L 191.45607 128.584839 
L 193.430523 129.030265 
L 195.404976 130.062136 
L 197.37943 131.557897 
L 199.353883 132.346641 
L 201.328337 133.213109 
L 203.30279 134.340658 
L 205.277243 135.712337 
L 207.251697 136.654648 
L 209.22615 137.318927 
L 211.200604 138.569336 
L 213.175057 139.588258 
L 215.14951 140.486961 
L 217.123964 141.717977 
L 219.098417 142.628469 
L 221.072871 143.307005 
L 223.047324 143.848882 
L 225.021777 144.372852 
L 226.996231 144.797425 
L 228.970684 145.261277 
L 230.945138 145.634657 
L 232.919591 145.99633 
L 234.894044 146.165394 
L 236.868498 146.381987 
L 238.842951 146.541796 
L 240.817405 146.751645 
L 242.791858 146.824191 
L 244.766311 146.90717 
L 246.740765 146.936748 
L 248.715218 146.952339 
L 250.689671 147.093666 
L 252.664125 147.188186 
L 254.638578 147.128523 
L 256.613032 147.223463 
L 258.587485 147.267942 
L 260.561938 147.46691 
L 262.536392 147.520979 
L 264.510845 147.565013 
L 266.485299 147.663791 
L 268.459752 147.596579 
L 270.434205 147.514921 
L 272.408659 147.415546 
L 274.383112 147.399036 
" clip-path="url(#p40bd1e0a06)" style="fill: none; stroke: #07834d; stroke-width: 1.35; stroke-linecap: square"/>
   </g>
   <g id="line2d_12">
    <path d="M 197.37943 150.38026 
L 197.37943 120.664931 
" clip-path="url(#p40bd1e0a06)" style="fill: none; stroke-dasharray: 1.3,1.3; stroke-dashoffset: 0; stroke: #777777; stroke-width: 0.65"/>
   </g>
   <g id="patch_7">
    <path d="M 110.602203 150.38026 
L 110.602203 120.664931 
" style="fill: none; stroke: #000000; stroke-width: 0.8; stroke-linejoin: miter; stroke-linecap: square"/>
   </g>
  </g>
  <g id="axes_4">
   <g id="patch_8">
    <path d="M 110.602203 194.991093 
L 282.182203 194.991093 
L 282.182203 165.275764 
L 110.602203 165.275764 
z
" style="fill: #ffffff"/>
   </g>
   <g id="matplotlib.axis_7">
    <g id="xtick_10"/>
    <g id="xtick_11"/>
    <g id="xtick_12"/>
   </g>
   <g id="matplotlib.axis_8">
    <g id="ytick_7">
     <g id="line2d_13">
      <g>
       <use xlink:href="#m71a242a898" x="110.602203" y="194.991093" style="stroke: #000000; stroke-width: 0.7"/>
      </g>
     </g>
     <g id="text_11">
      <!-- 0 -->
      <g transform="translate(102.398328 197.567906) scale(0.072 -0.072)">
       <use xlink:href="#ArialMT-30"/>
      </g>
     </g>
    </g>
    <g id="ytick_8">
     <g id="line2d_14">
      <g>
       <use xlink:href="#m71a242a898" x="110.602203" y="165.275764" style="stroke: #000000; stroke-width: 0.7"/>
      </g>
     </g>
     <g id="text_12">
      <!-- 1.8 -->
      <g transform="translate(96.394203 167.852576) scale(0.072 -0.072)">
       <defs>
        <path id="ArialMT-38" d="M 1131 2484 
Q 781 2613 612 2850 
Q 444 3088 444 3419 
Q 444 3919 803 4259 
Q 1163 4600 1759 4600 
Q 2359 4600 2725 4251 
Q 3091 3903 3091 3403 
Q 3091 3084 2923 2848 
Q 2756 2613 2416 2484 
Q 2838 2347 3058 2040 
Q 3278 1734 3278 1309 
Q 3278 722 2862 322 
Q 2447 -78 1769 -78 
Q 1091 -78 675 323 
Q 259 725 259 1325 
Q 259 1772 486 2073 
Q 713 2375 1131 2484 
z
M 1019 3438 
Q 1019 3113 1228 2906 
Q 1438 2700 1772 2700 
Q 2097 2700 2305 2904 
Q 2513 3109 2513 3406 
Q 2513 3716 2298 3927 
Q 2084 4138 1766 4138 
Q 1444 4138 1231 3931 
Q 1019 3725 1019 3438 
z
M 838 1322 
Q 838 1081 952 856 
Q 1066 631 1291 507 
Q 1516 384 1775 384 
Q 2178 384 2440 643 
Q 2703 903 2703 1303 
Q 2703 1709 2433 1975 
Q 2163 2241 1756 2241 
Q 1359 2241 1098 1978 
Q 838 1716 838 1322 
z
" transform="scale(0.015625)"/>
       </defs>
       <use xlink:href="#ArialMT-31"/>
       <use xlink:href="#ArialMT-2e" x="55.615234"/>
       <use xlink:href="#ArialMT-38" x="83.398438"/>
      </g>
     </g>
    </g>
    <g id="text_13">
     <!-- HINFP (U2OS) -->
     <g transform="translate(21.544641 182.387272) scale(0.087 -0.087)">
      <defs>
       <path id="ArialMT-49" d="M 597 0 
L 597 4581 
L 1203 4581 
L 1203 0 
L 597 0 
z
" transform="scale(0.015625)"/>
       <path id="ArialMT-4e" d="M 488 0 
L 488 4581 
L 1109 4581 
L 3516 984 
L 3516 4581 
L 4097 4581 
L 4097 0 
L 3475 0 
L 1069 3600 
L 1069 0 
L 488 0 
z
" transform="scale(0.015625)"/>
       <path id="ArialMT-46" d="M 525 0 
L 525 4581 
L 3616 4581 
L 3616 4041 
L 1131 4041 
L 1131 2622 
L 3281 2622 
L 3281 2081 
L 1131 2081 
L 1131 0 
L 525 0 
z
" transform="scale(0.015625)"/>
       <path id="ArialMT-28" d="M 1497 -1347 
Q 1031 -759 709 28 
Q 388 816 388 1659 
Q 388 2403 628 3084 
Q 909 3875 1497 4659 
L 1900 4659 
Q 1522 4009 1400 3731 
Q 1209 3300 1100 2831 
Q 966 2247 966 1656 
Q 966 153 1900 -1347 
L 1497 -1347 
z
" transform="scale(0.015625)"/>
       <path id="ArialMT-55" d="M 3500 4581 
L 4106 4581 
L 4106 1934 
Q 4106 1244 3950 837 
Q 3794 431 3386 176 
Q 2978 -78 2316 -78 
Q 1672 -78 1262 144 
Q 853 366 678 786 
Q 503 1206 503 1934 
L 503 4581 
L 1109 4581 
L 1109 1938 
Q 1109 1341 1220 1058 
Q 1331 775 1601 622 
Q 1872 469 2263 469 
Q 2931 469 3215 772 
Q 3500 1075 3500 1938 
L 3500 4581 
z
" transform="scale(0.015625)"/>
       <path id="ArialMT-29" d="M 791 -1347 
L 388 -1347 
Q 1322 153 1322 1656 
Q 1322 2244 1188 2822 
Q 1081 3291 891 3722 
Q 769 4003 388 4659 
L 791 4659 
Q 1378 3875 1659 3084 
Q 1900 2403 1900 1659 
Q 1900 816 1576 28 
Q 1253 -759 791 -1347 
z
" transform="scale(0.015625)"/>
      </defs>
      <use xlink:href="#ArialMT-48"/>
      <use xlink:href="#ArialMT-49" x="72.216797"/>
      <use xlink:href="#ArialMT-4e" x="100"/>
      <use xlink:href="#ArialMT-46" x="172.216797"/>
      <use xlink:href="#ArialMT-50" x="233.300781"/>
      <use xlink:href="#ArialMT-20" x="298.25"/>
      <use xlink:href="#ArialMT-28" x="326.033203"/>
      <use xlink:href="#ArialMT-55" x="359.333984"/>
      <use xlink:href="#ArialMT-32" x="431.550781"/>
      <use xlink:href="#ArialMT-4f" x="487.166016"/>
      <use xlink:href="#ArialMT-53" x="564.949219"/>
      <use xlink:href="#ArialMT-29" x="631.648438"/>
     </g>
    </g>
   </g>
   <g id="line2d_15">
    <path d="M 118.401294 193.268409 
L 120.375747 193.210375 
L 122.350201 193.140124 
L 124.324654 193.143178 
L 126.299108 193.170668 
L 128.273561 193.152342 
L 130.248014 193.118743 
L 132.222468 193.036274 
L 134.196921 193.06071 
L 136.171375 193.085145 
L 138.145828 193.069873 
L 140.120281 193.024057 
L 142.094735 192.978241 
L 144.069188 192.959914 
L 146.043642 192.90188 
L 148.018095 192.752215 
L 149.992548 192.486481 
L 151.967002 192.116898 
L 153.941455 191.677064 
L 155.915909 191.165959 
L 157.890362 190.470573 
L 159.864815 189.383205 
L 161.839269 187.825457 
L 163.813722 186.78696 
L 165.788176 185.53771 
L 167.762629 184.38009 
L 169.737082 183.482096 
L 171.711536 182.804019 
L 173.685989 181.875481 
L 175.660442 180.901122 
L 177.634896 180.082542 
L 179.609349 179.438059 
L 181.583803 178.662251 
L 183.558256 177.921052 
L 185.532709 177.290818 
L 187.507163 176.957883 
L 189.481616 176.808218 
L 191.45607 177.217516 
L 193.430523 177.477139 
L 195.404976 177.857923 
L 197.37943 178.579778 
L 199.353883 179.50526 
L 201.328337 180.882799 
L 203.30279 181.811334 
L 205.277243 182.975067 
L 207.251697 184.074647 
L 209.22615 185.009297 
L 211.200604 185.705703 
L 213.175057 186.551773 
L 215.14951 187.547509 
L 217.123964 188.353869 
L 219.098417 188.955588 
L 221.072871 189.612286 
L 223.047324 190.449193 
L 225.021777 191.136434 
L 226.996231 191.585432 
L 228.970684 192.00694 
L 230.945138 192.003885 
L 232.919591 192.205476 
L 234.894044 192.419285 
L 236.868498 192.532298 
L 238.842951 192.733888 
L 240.817405 192.862173 
L 242.791858 192.987404 
L 244.766311 192.898147 
L 246.740765 192.904935 
L 248.715218 192.794976 
L 250.689671 192.767487 
L 252.664125 192.846901 
L 254.638578 192.868282 
L 256.613032 192.907989 
L 258.587485 192.926316 
L 260.561938 192.966023 
L 262.536392 192.923261 
L 264.510845 192.941588 
L 266.485299 192.996567 
L 268.459752 193.021002 
L 270.434205 193.03322 
L 272.408659 193.124852 
L 274.383112 193.161505 
" clip-path="url(#p77058b310f)" style="fill: none; stroke: #3a3a3a; stroke-width: 1.35; stroke-linecap: square"/>
   </g>
   <g id="line2d_16">
    <path d="M 197.37943 194.991093 
L 197.37943 165.275764 
" clip-path="url(#p77058b310f)" style="fill: none; stroke-dasharray: 1.3,1.3; stroke-dashoffset: 0; stroke: #777777; stroke-width: 0.65"/>
   </g>
   <g id="patch_9">
    <path d="M 110.602203 194.991093 
L 110.602203 165.275764 
" style="fill: none; stroke: #000000; stroke-width: 0.8; stroke-linejoin: miter; stroke-linecap: square"/>
   </g>
   <g id="text_14">
    <!-- CPM -->
    <g transform="translate(92.028753 159.981771) scale(0.072 -0.072)">
     <use xlink:href="#ArialMT-43"/>
     <use xlink:href="#ArialMT-50" x="72.216797"/>
     <use xlink:href="#ArialMT-4d" x="138.916016"/>
    </g>
   </g>
  </g>
  <g id="axes_5">
   <g id="patch_10">
    <path d="M 110.602203 239.601927 
L 282.182203 239.601927 
L 282.182203 209.886597 
L 110.602203 209.886597 
z
" style="fill: #ffffff"/>
   </g>
   <g id="matplotlib.axis_9">
    <g id="xtick_13"/>
    <g id="xtick_14"/>
    <g id="xtick_15"/>
   </g>
   <g id="matplotlib.axis_10">
    <g id="ytick_9">
     <g id="line2d_17">
      <g>
       <use xlink:href="#m71a242a898" x="110.602203" y="239.601927" style="stroke: #000000; stroke-width: 0.7"/>
      </g>
     </g>
     <g id="text_15">
      <!-- 0 -->
      <g transform="translate(102.398328 242.178739) scale(0.072 -0.072)">
       <use xlink:href="#ArialMT-30"/>
      </g>
     </g>
    </g>
    <g id="ytick_10">
     <g id="line2d_18">
      <g>
       <use xlink:href="#m71a242a898" x="110.602203" y="209.886597" style="stroke: #000000; stroke-width: 0.7"/>
      </g>
     </g>
     <g id="text_16">
      <!-- 1.8 -->
      <g transform="translate(96.394203 212.46341) scale(0.072 -0.072)">
       <use xlink:href="#ArialMT-31"/>
       <use xlink:href="#ArialMT-2e" x="55.615234"/>
       <use xlink:href="#ArialMT-38" x="83.398438"/>
      </g>
     </g>
    </g>
    <g id="text_17">
     <!-- NPAT (U2OS) -->
     <g transform="translate(25.724719 226.998106) scale(0.087 -0.087)">
      <defs>
       <path id="ArialMT-41" d="M -9 0 
L 1750 4581 
L 2403 4581 
L 4278 0 
L 3588 0 
L 3053 1388 
L 1138 1388 
L 634 0 
L -9 0 
z
M 1313 1881 
L 2866 1881 
L 2388 3150 
Q 2169 3728 2063 4100 
Q 1975 3659 1816 3225 
L 1313 1881 
z
" transform="scale(0.015625)"/>
       <path id="ArialMT-54" d="M 1659 0 
L 1659 4041 
L 150 4041 
L 150 4581 
L 3781 4581 
L 3781 4041 
L 2266 4041 
L 2266 0 
L 1659 0 
z
" transform="scale(0.015625)"/>
      </defs>
      <use xlink:href="#ArialMT-4e"/>
      <use xlink:href="#ArialMT-50" x="72.216797"/>
      <use xlink:href="#ArialMT-41" x="131.541016"/>
      <use xlink:href="#ArialMT-54" x="190.865234"/>
      <use xlink:href="#ArialMT-20" x="250.199219"/>
      <use xlink:href="#ArialMT-28" x="277.982422"/>
      <use xlink:href="#ArialMT-55" x="311.283203"/>
      <use xlink:href="#ArialMT-32" x="383.5"/>
      <use xlink:href="#ArialMT-4f" x="439.115234"/>
      <use xlink:href="#ArialMT-53" x="516.898438"/>
      <use xlink:href="#ArialMT-29" x="583.597656"/>
     </g>
    </g>
   </g>
   <g id="line2d_19">
    <path d="M 118.401294 226.610054 
L 120.375747 226.300545 
L 122.350201 226.109962 
L 124.324654 226.003883 
L 126.299108 226.021859 
L 128.273561 225.852849 
L 130.248014 225.615518 
L 132.222468 225.629906 
L 134.196921 225.554388 
L 136.171375 225.538206 
L 138.145828 225.78992 
L 140.120281 226.081191 
L 142.094735 226.320324 
L 144.069188 226.741047 
L 146.043642 227.080865 
L 148.018095 227.370337 
L 149.992548 227.386517 
L 151.967002 227.701161 
L 153.941455 227.92411 
L 155.915909 228.188413 
L 157.890362 228.456312 
L 159.864815 228.145265 
L 161.839269 227.54654 
L 163.813722 227.095248 
L 165.788176 226.358081 
L 167.762629 225.718002 
L 169.737082 225.077927 
L 171.711536 224.200515 
L 173.685989 223.634156 
L 175.660442 222.967114 
L 177.634896 222.312652 
L 179.609349 221.609646 
L 181.583803 220.712455 
L 183.558256 219.993265 
L 185.532709 219.106865 
L 187.507163 218.35352 
L 189.481616 217.42936 
L 191.45607 216.445872 
L 193.430523 215.160323 
L 195.404976 214.137281 
L 197.37943 213.396515 
L 199.353883 212.587425 
L 201.328337 212.073208 
L 203.30279 211.548208 
L 205.277243 211.452911 
L 207.251697 211.425941 
L 209.22615 211.599827 
L 211.200604 211.994093 
L 213.175057 212.146926 
L 215.14951 212.603609 
L 217.123964 213.132213 
L 219.098417 213.509782 
L 221.072871 214.077946 
L 223.047324 214.504064 
L 225.021777 215.394064 
L 226.996231 215.951434 
L 228.970684 216.857611 
L 230.945138 217.60736 
L 232.919591 218.68524 
L 234.894044 219.719973 
L 236.868498 220.478718 
L 238.842951 221.688752 
L 240.817405 222.823271 
L 242.791858 223.718663 
L 244.766311 224.454031 
L 246.740765 225.248734 
L 248.715218 225.833071 
L 250.689671 226.26998 
L 252.664125 226.94422 
L 254.638578 227.289427 
L 256.613032 227.634635 
L 258.587485 228.078736 
L 260.561938 228.609133 
L 262.536392 229.026266 
L 264.510845 229.198873 
L 266.485299 229.430809 
L 268.459752 229.713088 
L 270.434205 230.094261 
L 272.408659 230.230906 
L 274.383112 230.272258 
" clip-path="url(#p3d63a32503)" style="fill: none; stroke: #3a3a3a; stroke-width: 1.35; stroke-linecap: square"/>
   </g>
   <g id="line2d_20">
    <path d="M 197.37943 239.601927 
L 197.37943 209.886597 
" clip-path="url(#p3d63a32503)" style="fill: none; stroke-dasharray: 1.3,1.3; stroke-dashoffset: 0; stroke: #777777; stroke-width: 0.65"/>
   </g>
   <g id="patch_11">
    <path d="M 110.602203 239.601927 
L 110.602203 209.886597 
" style="fill: none; stroke: #000000; stroke-width: 0.8; stroke-linejoin: miter; stroke-linecap: square"/>
   </g>
  </g>
  <g id="axes_6">
   <g id="patch_12">
    <path d="M 110.602203 284.21276 
L 282.182203 284.21276 
L 282.182203 254.497431 
L 110.602203 254.497431 
z
" style="fill: #ffffff"/>
   </g>
   <g id="matplotlib.axis_11">
    <g id="xtick_16">
     <g id="line2d_21">
      <defs>
       <path id="mef7b61c383" d="M 0 0 
L 0 3 
" style="stroke: #000000; stroke-width: 0.8"/>
      </defs>
      <g>
       <use xlink:href="#mef7b61c383" x="118.401294" y="284.21276" style="stroke: #000000; stroke-width: 0.8"/>
      </g>
     </g>
     <g id="text_18">
      <!-- −400 -->
      <g transform="translate(109.166685 296.582166) scale(0.082 -0.082)">
       <defs>
        <path id="ArialMT-2212" d="M 3381 1997 
L 356 1997 
L 356 2522 
L 3381 2522 
L 3381 1997 
z
" transform="scale(0.015625)"/>
       </defs>
       <use xlink:href="#ArialMT-2212"/>
       <use xlink:href="#ArialMT-34" x="58.398438"/>
       <use xlink:href="#ArialMT-30" x="114.013672"/>
       <use xlink:href="#ArialMT-30" x="169.628906"/>
      </g>
     </g>
    </g>
    <g id="xtick_17">
     <g id="line2d_22">
      <g>
       <use xlink:href="#mef7b61c383" x="197.37943" y="284.21276" style="stroke: #000000; stroke-width: 0.8"/>
      </g>
     </g>
     <g id="text_19">
      <!-- TSS -->
      <g transform="translate(189.40557 296.582166) scale(0.082 -0.082)">
       <use xlink:href="#ArialMT-54"/>
       <use xlink:href="#ArialMT-53" x="61.083984"/>
       <use xlink:href="#ArialMT-53" x="127.783203"/>
      </g>
     </g>
    </g>
    <g id="xtick_18">
     <g id="line2d_23">
      <g>
       <use xlink:href="#mef7b61c383" x="274.383112" y="284.21276" style="stroke: #000000; stroke-width: 0.8"/>
      </g>
     </g>
     <g id="text_20">
      <!-- +400 -->
      <g transform="translate(265.148503 296.582166) scale(0.082 -0.082)">
       <defs>
        <path id="ArialMT-2b" d="M 1603 741 
L 1603 1997 
L 356 1997 
L 356 2522 
L 1603 2522 
L 1603 3769 
L 2134 3769 
L 2134 2522 
L 3381 2522 
L 3381 1997 
L 2134 1997 
L 2134 741 
L 1603 741 
z
" transform="scale(0.015625)"/>
       </defs>
       <use xlink:href="#ArialMT-2b"/>
       <use xlink:href="#ArialMT-34" x="58.398438"/>
       <use xlink:href="#ArialMT-30" x="114.013672"/>
       <use xlink:href="#ArialMT-30" x="169.628906"/>
      </g>
     </g>
    </g>
    <g id="text_21">
     <!-- Distance from TSS (bp) -->
     <g transform="translate(152.068023 306.399651) scale(0.085 -0.085)">
      <defs>
       <path id="ArialMT-69" d="M 425 3934 
L 425 4581 
L 988 4581 
L 988 3934 
L 425 3934 
z
M 425 0 
L 425 3319 
L 988 3319 
L 988 0 
L 425 0 
z
" transform="scale(0.015625)"/>
       <path id="ArialMT-73" d="M 197 991 
L 753 1078 
Q 800 744 1014 566 
Q 1228 388 1613 388 
Q 2000 388 2187 545 
Q 2375 703 2375 916 
Q 2375 1106 2209 1216 
Q 2094 1291 1634 1406 
Q 1016 1563 777 1677 
Q 538 1791 414 1992 
Q 291 2194 291 2438 
Q 291 2659 392 2848 
Q 494 3038 669 3163 
Q 800 3259 1026 3326 
Q 1253 3394 1513 3394 
Q 1903 3394 2198 3281 
Q 2494 3169 2634 2976 
Q 2775 2784 2828 2463 
L 2278 2388 
Q 2241 2644 2061 2787 
Q 1881 2931 1553 2931 
Q 1166 2931 1000 2803 
Q 834 2675 834 2503 
Q 834 2394 903 2306 
Q 972 2216 1119 2156 
Q 1203 2125 1616 2013 
Q 2213 1853 2448 1751 
Q 2684 1650 2818 1456 
Q 2953 1263 2953 975 
Q 2953 694 2789 445 
Q 2625 197 2315 61 
Q 2006 -75 1616 -75 
Q 969 -75 630 194 
Q 291 463 197 991 
z
" transform="scale(0.015625)"/>
       <path id="ArialMT-74" d="M 1650 503 
L 1731 6 
Q 1494 -44 1306 -44 
Q 1000 -44 831 53 
Q 663 150 594 308 
Q 525 466 525 972 
L 525 2881 
L 113 2881 
L 113 3319 
L 525 3319 
L 525 4141 
L 1084 4478 
L 1084 3319 
L 1650 3319 
L 1650 2881 
L 1084 2881 
L 1084 941 
Q 1084 700 1114 631 
Q 1144 563 1211 522 
Q 1278 481 1403 481 
Q 1497 481 1650 503 
z
" transform="scale(0.015625)"/>
       <path id="ArialMT-61" d="M 2588 409 
Q 2275 144 1986 34 
Q 1697 -75 1366 -75 
Q 819 -75 525 192 
Q 231 459 231 875 
Q 231 1119 342 1320 
Q 453 1522 633 1644 
Q 813 1766 1038 1828 
Q 1203 1872 1538 1913 
Q 2219 1994 2541 2106 
Q 2544 2222 2544 2253 
Q 2544 2597 2384 2738 
Q 2169 2928 1744 2928 
Q 1347 2928 1158 2789 
Q 969 2650 878 2297 
L 328 2372 
Q 403 2725 575 2942 
Q 747 3159 1072 3276 
Q 1397 3394 1825 3394 
Q 2250 3394 2515 3294 
Q 2781 3194 2906 3042 
Q 3031 2891 3081 2659 
Q 3109 2516 3109 2141 
L 3109 1391 
Q 3109 606 3145 398 
Q 3181 191 3288 0 
L 2700 0 
Q 2613 175 2588 409 
z
M 2541 1666 
Q 2234 1541 1622 1453 
Q 1275 1403 1131 1340 
Q 988 1278 909 1158 
Q 831 1038 831 891 
Q 831 666 1001 516 
Q 1172 366 1500 366 
Q 1825 366 2078 508 
Q 2331 650 2450 897 
Q 2541 1088 2541 1459 
L 2541 1666 
z
" transform="scale(0.015625)"/>
       <path id="ArialMT-6e" d="M 422 0 
L 422 3319 
L 928 3319 
L 928 2847 
Q 1294 3394 1984 3394 
Q 2284 3394 2536 3286 
Q 2788 3178 2913 3003 
Q 3038 2828 3088 2588 
Q 3119 2431 3119 2041 
L 3119 0 
L 2556 0 
L 2556 2019 
Q 2556 2363 2490 2533 
Q 2425 2703 2258 2804 
Q 2091 2906 1866 2906 
Q 1506 2906 1245 2678 
Q 984 2450 984 1813 
L 984 0 
L 422 0 
z
" transform="scale(0.015625)"/>
       <path id="ArialMT-63" d="M 2588 1216 
L 3141 1144 
Q 3050 572 2676 248 
Q 2303 -75 1759 -75 
Q 1078 -75 664 370 
Q 250 816 250 1647 
Q 250 2184 428 2587 
Q 606 2991 970 3192 
Q 1334 3394 1763 3394 
Q 2303 3394 2647 3120 
Q 2991 2847 3088 2344 
L 2541 2259 
Q 2463 2594 2264 2762 
Q 2066 2931 1784 2931 
Q 1359 2931 1093 2626 
Q 828 2322 828 1663 
Q 828 994 1084 691 
Q 1341 388 1753 388 
Q 2084 388 2306 591 
Q 2528 794 2588 1216 
z
" transform="scale(0.015625)"/>
       <path id="ArialMT-65" d="M 2694 1069 
L 3275 997 
Q 3138 488 2766 206 
Q 2394 -75 1816 -75 
Q 1088 -75 661 373 
Q 234 822 234 1631 
Q 234 2469 665 2931 
Q 1097 3394 1784 3394 
Q 2450 3394 2872 2941 
Q 3294 2488 3294 1666 
Q 3294 1616 3291 1516 
L 816 1516 
Q 847 969 1125 678 
Q 1403 388 1819 388 
Q 2128 388 2347 550 
Q 2566 713 2694 1069 
z
M 847 1978 
L 2700 1978 
Q 2663 2397 2488 2606 
Q 2219 2931 1791 2931 
Q 1403 2931 1139 2672 
Q 875 2413 847 1978 
z
" transform="scale(0.015625)"/>
       <path id="ArialMT-66" d="M 556 0 
L 556 2881 
L 59 2881 
L 59 3319 
L 556 3319 
L 556 3672 
Q 556 4006 616 4169 
Q 697 4388 901 4523 
Q 1106 4659 1475 4659 
Q 1713 4659 2000 4603 
L 1916 4113 
Q 1741 4144 1584 4144 
Q 1328 4144 1222 4034 
Q 1116 3925 1116 3625 
L 1116 3319 
L 1763 3319 
L 1763 2881 
L 1116 2881 
L 1116 0 
L 556 0 
z
" transform="scale(0.015625)"/>
       <path id="ArialMT-72" d="M 416 0 
L 416 3319 
L 922 3319 
L 922 2816 
Q 1116 3169 1280 3281 
Q 1444 3394 1641 3394 
Q 1925 3394 2219 3213 
L 2025 2691 
Q 1819 2813 1613 2813 
Q 1428 2813 1281 2702 
Q 1134 2591 1072 2394 
Q 978 2094 978 1738 
L 978 0 
L 416 0 
z
" transform="scale(0.015625)"/>
       <path id="ArialMT-6f" d="M 213 1659 
Q 213 2581 725 3025 
Q 1153 3394 1769 3394 
Q 2453 3394 2887 2945 
Q 3322 2497 3322 1706 
Q 3322 1066 3130 698 
Q 2938 331 2570 128 
Q 2203 -75 1769 -75 
Q 1072 -75 642 372 
Q 213 819 213 1659 
z
M 791 1659 
Q 791 1022 1069 705 
Q 1347 388 1769 388 
Q 2188 388 2466 706 
Q 2744 1025 2744 1678 
Q 2744 2294 2464 2611 
Q 2184 2928 1769 2928 
Q 1347 2928 1069 2612 
Q 791 2297 791 1659 
z
" transform="scale(0.015625)"/>
       <path id="ArialMT-6d" d="M 422 0 
L 422 3319 
L 925 3319 
L 925 2853 
Q 1081 3097 1340 3245 
Q 1600 3394 1931 3394 
Q 2300 3394 2536 3241 
Q 2772 3088 2869 2813 
Q 3263 3394 3894 3394 
Q 4388 3394 4653 3120 
Q 4919 2847 4919 2278 
L 4919 0 
L 4359 0 
L 4359 2091 
Q 4359 2428 4304 2576 
Q 4250 2725 4106 2815 
Q 3963 2906 3769 2906 
Q 3419 2906 3187 2673 
Q 2956 2441 2956 1928 
L 2956 0 
L 2394 0 
L 2394 2156 
Q 2394 2531 2256 2718 
Q 2119 2906 1806 2906 
Q 1569 2906 1367 2781 
Q 1166 2656 1075 2415 
Q 984 2175 984 1722 
L 984 0 
L 422 0 
z
" transform="scale(0.015625)"/>
       <path id="ArialMT-62" d="M 941 0 
L 419 0 
L 419 4581 
L 981 4581 
L 981 2947 
Q 1338 3394 1891 3394 
Q 2197 3394 2470 3270 
Q 2744 3147 2920 2923 
Q 3097 2700 3197 2384 
Q 3297 2069 3297 1709 
Q 3297 856 2875 390 
Q 2453 -75 1863 -75 
Q 1275 -75 941 416 
L 941 0 
z
M 934 1684 
Q 934 1088 1097 822 
Q 1363 388 1816 388 
Q 2184 388 2453 708 
Q 2722 1028 2722 1663 
Q 2722 2313 2464 2622 
Q 2206 2931 1841 2931 
Q 1472 2931 1203 2611 
Q 934 2291 934 1684 
z
" transform="scale(0.015625)"/>
       <path id="ArialMT-70" d="M 422 -1272 
L 422 3319 
L 934 3319 
L 934 2888 
Q 1116 3141 1344 3267 
Q 1572 3394 1897 3394 
Q 2322 3394 2647 3175 
Q 2972 2956 3137 2557 
Q 3303 2159 3303 1684 
Q 3303 1175 3120 767 
Q 2938 359 2589 142 
Q 2241 -75 1856 -75 
Q 1575 -75 1351 44 
Q 1128 163 984 344 
L 984 -1272 
L 422 -1272 
z
M 931 1641 
Q 931 1000 1190 694 
Q 1450 388 1819 388 
Q 2194 388 2461 705 
Q 2728 1022 2728 1688 
Q 2728 2322 2467 2637 
Q 2206 2953 1844 2953 
Q 1484 2953 1207 2617 
Q 931 2281 931 1641 
z
" transform="scale(0.015625)"/>
      </defs>
      <use xlink:href="#ArialMT-44"/>
      <use xlink:href="#ArialMT-69" x="72.216797"/>
      <use xlink:href="#ArialMT-73" x="94.433594"/>
      <use xlink:href="#ArialMT-74" x="144.433594"/>
      <use xlink:href="#ArialMT-61" x="172.216797"/>
      <use xlink:href="#ArialMT-6e" x="227.832031"/>
      <use xlink:href="#ArialMT-63" x="283.447266"/>
      <use xlink:href="#ArialMT-65" x="333.447266"/>
      <use xlink:href="#ArialMT-20" x="389.0625"/>
      <use xlink:href="#ArialMT-66" x="416.845703"/>
      <use xlink:href="#ArialMT-72" x="444.628906"/>
      <use xlink:href="#ArialMT-6f" x="477.929688"/>
      <use xlink:href="#ArialMT-6d" x="533.544922"/>
      <use xlink:href="#ArialMT-20" x="616.845703"/>
      <use xlink:href="#ArialMT-54" x="642.878906"/>
      <use xlink:href="#ArialMT-53" x="703.962891"/>
      <use xlink:href="#ArialMT-53" x="770.662109"/>
      <use xlink:href="#ArialMT-20" x="837.361328"/>
      <use xlink:href="#ArialMT-28" x="865.144531"/>
      <use xlink:href="#ArialMT-62" x="898.445312"/>
      <use xlink:href="#ArialMT-70" x="954.060547"/>
      <use xlink:href="#ArialMT-29" x="1009.675781"/>
     </g>
    </g>
   </g>
   <g id="matplotlib.axis_12">
    <g id="ytick_11">
     <g id="line2d_24">
      <g>
       <use xlink:href="#m71a242a898" x="110.602203" y="284.21276" style="stroke: #000000; stroke-width: 0.7"/>
      </g>
     </g>
     <g id="text_22">
      <!-- 0 -->
      <g transform="translate(102.398328 286.789572) scale(0.072 -0.072)">
       <use xlink:href="#ArialMT-30"/>
      </g>
     </g>
    </g>
    <g id="ytick_12">
     <g id="line2d_25">
      <g>
       <use xlink:href="#m71a242a898" x="110.602203" y="254.497431" style="stroke: #000000; stroke-width: 0.7"/>
      </g>
     </g>
     <g id="text_23">
      <!-- 1.8 -->
      <g transform="translate(96.394203 257.074243) scale(0.072 -0.072)">
       <use xlink:href="#ArialMT-31"/>
       <use xlink:href="#ArialMT-2e" x="55.615234"/>
       <use xlink:href="#ArialMT-38" x="83.398438"/>
      </g>
     </g>
    </g>
    <g id="text_24">
     <!-- IgG (U2OS) -->
     <g transform="translate(33.470438 271.608939) scale(0.087 -0.087)">
      <defs>
       <path id="ArialMT-67" d="M 319 -275 
L 866 -356 
Q 900 -609 1056 -725 
Q 1266 -881 1628 -881 
Q 2019 -881 2231 -725 
Q 2444 -569 2519 -288 
Q 2563 -116 2559 434 
Q 2191 0 1641 0 
Q 956 0 581 494 
Q 206 988 206 1678 
Q 206 2153 378 2554 
Q 550 2956 876 3175 
Q 1203 3394 1644 3394 
Q 2231 3394 2613 2919 
L 2613 3319 
L 3131 3319 
L 3131 450 
Q 3131 -325 2973 -648 
Q 2816 -972 2473 -1159 
Q 2131 -1347 1631 -1347 
Q 1038 -1347 672 -1080 
Q 306 -813 319 -275 
z
M 784 1719 
Q 784 1066 1043 766 
Q 1303 466 1694 466 
Q 2081 466 2343 764 
Q 2606 1063 2606 1700 
Q 2606 2309 2336 2618 
Q 2066 2928 1684 2928 
Q 1309 2928 1046 2623 
Q 784 2319 784 1719 
z
" transform="scale(0.015625)"/>
      </defs>
      <use xlink:href="#ArialMT-49"/>
      <use xlink:href="#ArialMT-67" x="27.783203"/>
      <use xlink:href="#ArialMT-47" x="83.398438"/>
      <use xlink:href="#ArialMT-20" x="161.181641"/>
      <use xlink:href="#ArialMT-28" x="188.964844"/>
      <use xlink:href="#ArialMT-55" x="222.265625"/>
      <use xlink:href="#ArialMT-32" x="294.482422"/>
      <use xlink:href="#ArialMT-4f" x="350.097656"/>
      <use xlink:href="#ArialMT-53" x="427.880859"/>
      <use xlink:href="#ArialMT-29" x="494.580078"/>
     </g>
    </g>
   </g>
   <g id="line2d_26">
    <path d="M 118.401294 282.34064 
L 120.375747 282.327268 
L 122.350201 282.303198 
L 124.324654 282.276453 
L 126.299108 282.233662 
L 128.273561 282.22029 
L 130.248014 282.177499 
L 132.222468 282.126685 
L 134.196921 282.041102 
L 136.171375 282.062497 
L 138.145828 282.115986 
L 140.120281 282.014357 
L 142.094735 282.04645 
L 144.069188 281.976023 
L 146.043642 282.000093 
L 148.018095 282.110637 
L 149.992548 282.102614 
L 151.967002 282.217616 
L 153.941455 282.222965 
L 155.915909 282.214941 
L 157.890362 282.367385 
L 159.864815 282.303198 
L 161.839269 282.177499 
L 163.813722 282.164127 
L 165.788176 282.115986 
L 167.762629 281.955519 
L 169.737082 281.97424 
L 171.711536 281.939472 
L 173.685989 281.907378 
L 175.660442 281.789702 
L 177.634896 281.77633 
L 179.609349 281.824471 
L 181.583803 281.779006 
L 183.558256 281.819122 
L 185.532709 281.811099 
L 187.507163 281.770982 
L 189.481616 281.808424 
L 191.45607 281.706795 
L 193.430523 281.682725 
L 195.404976 281.672027 
L 197.37943 281.546328 
L 199.353883 281.502645 
L 201.328337 281.613189 
L 203.30279 281.623887 
L 205.277243 281.589119 
L 207.251697 281.661329 
L 209.22615 281.717493 
L 211.200604 281.779005 
L 213.175057 281.741563 
L 215.14951 281.808424 
L 217.123964 281.824471 
L 219.098417 281.923425 
L 221.072871 281.979589 
L 223.047324 281.987612 
L 225.021777 281.966216 
L 226.996231 281.971565 
L 228.970684 282.025055 
L 230.945138 282.078544 
L 232.919591 282.041102 
L 234.894044 282.150754 
L 236.868498 282.182848 
L 238.842951 282.236337 
L 240.817405 282.204243 
L 242.791858 282.212267 
L 244.766311 282.279128 
L 246.740765 282.27378 
L 248.715218 282.22564 
L 250.689671 282.247035 
L 252.664125 282.276454 
L 254.638578 282.271105 
L 256.613032 282.188198 
L 258.587485 282.078545 
L 260.561938 282.0518 
L 262.536392 281.958194 
L 264.510845 282.014358 
L 266.485299 282.017032 
L 268.459752 281.832494 
L 270.434205 281.720167 
L 272.408659 281.741563 
L 274.383112 281.744238 
" clip-path="url(#p6ebf796481)" style="fill: none; stroke: #3a3a3a; stroke-width: 1.35; stroke-linecap: square"/>
   </g>
   <g id="line2d_27">
    <path d="M 197.37943 284.21276 
L 197.37943 254.497431 
" clip-path="url(#p6ebf796481)" style="fill: none; stroke-dasharray: 1.3,1.3; stroke-dashoffset: 0; stroke: #777777; stroke-width: 0.65"/>
   </g>
   <g id="patch_13">
    <path d="M 110.602203 284.21276 
L 110.602203 254.497431 
" style="fill: none; stroke: #000000; stroke-width: 0.8; stroke-linejoin: miter; stroke-linecap: square"/>
   </g>
   <g id="patch_14">
    <path d="M 110.602203 284.21276 
L 282.182203 284.21276 
" style="fill: none; stroke: #000000; stroke-width: 0.8; stroke-linejoin: miter; stroke-linecap: square"/>
   </g>
  </g>
  <g id="text_25">
   <!-- Expressed histone genes (n=56) -->
   <g transform="translate(64.285523 14.843672) scale(0.105 -0.105)">
    <defs>
     <path id="Arial-BoldMT-45" d="M 466 0 
L 466 4581 
L 3863 4581 
L 3863 3806 
L 1391 3806 
L 1391 2791 
L 3691 2791 
L 3691 2019 
L 1391 2019 
L 1391 772 
L 3950 772 
L 3950 0 
L 466 0 
z
" transform="scale(0.015625)"/>
     <path id="Arial-BoldMT-78" d="M 38 0 
L 1234 1709 
L 88 3319 
L 1159 3319 
L 1747 2406 
L 2366 3319 
L 3397 3319 
L 2272 1747 
L 3500 0 
L 2422 0 
L 1747 1028 
L 1066 0 
L 38 0 
z
" transform="scale(0.015625)"/>
     <path id="Arial-BoldMT-70" d="M 434 3319 
L 1253 3319 
L 1253 2831 
Q 1413 3081 1684 3237 
Q 1956 3394 2288 3394 
Q 2866 3394 3269 2941 
Q 3672 2488 3672 1678 
Q 3672 847 3265 386 
Q 2859 -75 2281 -75 
Q 2006 -75 1782 34 
Q 1559 144 1313 409 
L 1313 -1263 
L 434 -1263 
L 434 3319 
z
M 1303 1716 
Q 1303 1156 1525 889 
Q 1747 622 2066 622 
Q 2372 622 2575 867 
Q 2778 1113 2778 1672 
Q 2778 2194 2568 2447 
Q 2359 2700 2050 2700 
Q 1728 2700 1515 2451 
Q 1303 2203 1303 1716 
z
" transform="scale(0.015625)"/>
     <path id="Arial-BoldMT-72" d="M 1300 0 
L 422 0 
L 422 3319 
L 1238 3319 
L 1238 2847 
Q 1447 3181 1614 3287 
Q 1781 3394 1994 3394 
Q 2294 3394 2572 3228 
L 2300 2463 
Q 2078 2606 1888 2606 
Q 1703 2606 1575 2504 
Q 1447 2403 1373 2137 
Q 1300 1872 1300 1025 
L 1300 0 
z
" transform="scale(0.015625)"/>
     <path id="Arial-BoldMT-65" d="M 2381 1056 
L 3256 909 
Q 3088 428 2723 176 
Q 2359 -75 1813 -75 
Q 947 -75 531 491 
Q 203 944 203 1634 
Q 203 2459 634 2926 
Q 1066 3394 1725 3394 
Q 2466 3394 2894 2905 
Q 3322 2416 3303 1406 
L 1103 1406 
Q 1113 1016 1316 798 
Q 1519 581 1822 581 
Q 2028 581 2168 693 
Q 2309 806 2381 1056 
z
M 2431 1944 
Q 2422 2325 2234 2523 
Q 2047 2722 1778 2722 
Q 1491 2722 1303 2513 
Q 1116 2303 1119 1944 
L 2431 1944 
z
" transform="scale(0.015625)"/>
     <path id="Arial-BoldMT-73" d="M 150 947 
L 1031 1081 
Q 1088 825 1259 692 
Q 1431 559 1741 559 
Q 2081 559 2253 684 
Q 2369 772 2369 919 
Q 2369 1019 2306 1084 
Q 2241 1147 2013 1200 
Q 950 1434 666 1628 
Q 272 1897 272 2375 
Q 272 2806 612 3100 
Q 953 3394 1669 3394 
Q 2350 3394 2681 3172 
Q 3013 2950 3138 2516 
L 2309 2363 
Q 2256 2556 2107 2659 
Q 1959 2763 1684 2763 
Q 1338 2763 1188 2666 
Q 1088 2597 1088 2488 
Q 1088 2394 1175 2328 
Q 1294 2241 1995 2081 
Q 2697 1922 2975 1691 
Q 3250 1456 3250 1038 
Q 3250 581 2869 253 
Q 2488 -75 1741 -75 
Q 1063 -75 667 200 
Q 272 475 150 947 
z
" transform="scale(0.015625)"/>
     <path id="Arial-BoldMT-64" d="M 3503 0 
L 2688 0 
L 2688 488 
Q 2484 203 2207 64 
Q 1931 -75 1650 -75 
Q 1078 -75 670 386 
Q 263 847 263 1672 
Q 263 2516 659 2955 
Q 1056 3394 1663 3394 
Q 2219 3394 2625 2931 
L 2625 4581 
L 3503 4581 
L 3503 0 
z
M 1159 1731 
Q 1159 1200 1306 963 
Q 1519 619 1900 619 
Q 2203 619 2415 876 
Q 2628 1134 2628 1647 
Q 2628 2219 2422 2470 
Q 2216 2722 1894 2722 
Q 1581 2722 1370 2473 
Q 1159 2225 1159 1731 
z
" transform="scale(0.015625)"/>
     <path id="Arial-BoldMT-20" transform="scale(0.015625)"/>
     <path id="Arial-BoldMT-68" d="M 1334 4581 
L 1334 2897 
Q 1759 3394 2350 3394 
Q 2653 3394 2897 3281 
Q 3141 3169 3264 2994 
Q 3388 2819 3433 2606 
Q 3478 2394 3478 1947 
L 3478 0 
L 2600 0 
L 2600 1753 
Q 2600 2275 2550 2415 
Q 2500 2556 2373 2639 
Q 2247 2722 2056 2722 
Q 1838 2722 1666 2615 
Q 1494 2509 1414 2295 
Q 1334 2081 1334 1663 
L 1334 0 
L 456 0 
L 456 4581 
L 1334 4581 
z
" transform="scale(0.015625)"/>
     <path id="Arial-BoldMT-69" d="M 459 3769 
L 459 4581 
L 1338 4581 
L 1338 3769 
L 459 3769 
z
M 459 0 
L 459 3319 
L 1338 3319 
L 1338 0 
L 459 0 
z
" transform="scale(0.015625)"/>
     <path id="Arial-BoldMT-74" d="M 1981 3319 
L 1981 2619 
L 1381 2619 
L 1381 1281 
Q 1381 875 1398 808 
Q 1416 741 1477 697 
Q 1538 653 1625 653 
Q 1747 653 1978 738 
L 2053 56 
Q 1747 -75 1359 -75 
Q 1122 -75 931 4 
Q 741 84 652 211 
Q 563 338 528 553 
Q 500 706 500 1172 
L 500 2619 
L 97 2619 
L 97 3319 
L 500 3319 
L 500 3978 
L 1381 4491 
L 1381 3319 
L 1981 3319 
z
" transform="scale(0.015625)"/>
     <path id="Arial-BoldMT-6f" d="M 256 1706 
Q 256 2144 472 2553 
Q 688 2963 1083 3178 
Q 1478 3394 1966 3394 
Q 2719 3394 3200 2905 
Q 3681 2416 3681 1669 
Q 3681 916 3195 420 
Q 2709 -75 1972 -75 
Q 1516 -75 1102 131 
Q 688 338 472 736 
Q 256 1134 256 1706 
z
M 1156 1659 
Q 1156 1166 1390 903 
Q 1625 641 1969 641 
Q 2313 641 2545 903 
Q 2778 1166 2778 1666 
Q 2778 2153 2545 2415 
Q 2313 2678 1969 2678 
Q 1625 2678 1390 2415 
Q 1156 2153 1156 1659 
z
" transform="scale(0.015625)"/>
     <path id="Arial-BoldMT-6e" d="M 3478 0 
L 2600 0 
L 2600 1694 
Q 2600 2231 2544 2389 
Q 2488 2547 2361 2634 
Q 2234 2722 2056 2722 
Q 1828 2722 1647 2597 
Q 1466 2472 1398 2265 
Q 1331 2059 1331 1503 
L 1331 0 
L 453 0 
L 453 3319 
L 1269 3319 
L 1269 2831 
Q 1703 3394 2363 3394 
Q 2653 3394 2893 3289 
Q 3134 3184 3257 3021 
Q 3381 2859 3429 2653 
Q 3478 2447 3478 2063 
L 3478 0 
z
" transform="scale(0.015625)"/>
     <path id="Arial-BoldMT-67" d="M 378 -219 
L 1381 -341 
Q 1406 -516 1497 -581 
Q 1622 -675 1891 -675 
Q 2234 -675 2406 -572 
Q 2522 -503 2581 -350 
Q 2622 -241 2622 53 
L 2622 538 
Q 2228 0 1628 0 
Q 959 0 569 566 
Q 263 1013 263 1678 
Q 263 2513 664 2953 
Q 1066 3394 1663 3394 
Q 2278 3394 2678 2853 
L 2678 3319 
L 3500 3319 
L 3500 341 
Q 3500 -247 3403 -537 
Q 3306 -828 3131 -993 
Q 2956 -1159 2664 -1253 
Q 2372 -1347 1925 -1347 
Q 1081 -1347 728 -1058 
Q 375 -769 375 -325 
Q 375 -281 378 -219 
z
M 1163 1728 
Q 1163 1200 1367 954 
Q 1572 709 1872 709 
Q 2194 709 2416 961 
Q 2638 1213 2638 1706 
Q 2638 2222 2425 2472 
Q 2213 2722 1888 2722 
Q 1572 2722 1367 2476 
Q 1163 2231 1163 1728 
z
" transform="scale(0.015625)"/>
     <path id="Arial-BoldMT-28" d="M 1916 -1347 
L 1313 -1347 
Q 834 -625 584 153 
Q 334 931 334 1659 
Q 334 2563 644 3369 
Q 913 4069 1325 4659 
L 1925 4659 
Q 1497 3713 1336 3048 
Q 1175 2384 1175 1641 
Q 1175 1128 1270 590 
Q 1366 53 1531 -431 
Q 1641 -750 1916 -1347 
z
" transform="scale(0.015625)"/>
     <path id="Arial-BoldMT-3d" d="M 266 2550 
L 266 3356 
L 3469 3356 
L 3469 2550 
L 266 2550 
z
M 266 1163 
L 266 1972 
L 3469 1972 
L 3469 1163 
L 266 1163 
z
" transform="scale(0.015625)"/>
     <path id="Arial-BoldMT-35" d="M 284 1178 
L 1159 1269 
Q 1197 972 1381 798 
Q 1566 625 1806 625 
Q 2081 625 2272 848 
Q 2463 1072 2463 1522 
Q 2463 1944 2273 2155 
Q 2084 2366 1781 2366 
Q 1403 2366 1103 2031 
L 391 2134 
L 841 4519 
L 3163 4519 
L 3163 3697 
L 1506 3697 
L 1369 2919 
Q 1663 3066 1969 3066 
Q 2553 3066 2959 2641 
Q 3366 2216 3366 1538 
Q 3366 972 3038 528 
Q 2591 -78 1797 -78 
Q 1163 -78 763 262 
Q 363 603 284 1178 
z
" transform="scale(0.015625)"/>
     <path id="Arial-BoldMT-36" d="M 3247 3459 
L 2397 3366 
Q 2366 3628 2234 3753 
Q 2103 3878 1894 3878 
Q 1616 3878 1423 3628 
Q 1231 3378 1181 2588 
Q 1509 2975 1997 2975 
Q 2547 2975 2939 2556 
Q 3331 2138 3331 1475 
Q 3331 772 2918 347 
Q 2506 -78 1859 -78 
Q 1166 -78 719 461 
Q 272 1000 272 2228 
Q 272 3488 737 4044 
Q 1203 4600 1947 4600 
Q 2469 4600 2811 4308 
Q 3153 4016 3247 3459 
z
M 1256 1544 
Q 1256 1116 1453 883 
Q 1650 650 1903 650 
Q 2147 650 2309 840 
Q 2472 1031 2472 1466 
Q 2472 1913 2297 2120 
Q 2122 2328 1859 2328 
Q 1606 2328 1431 2129 
Q 1256 1931 1256 1544 
z
" transform="scale(0.015625)"/>
     <path id="Arial-BoldMT-29" d="M 216 -1347 
Q 475 -791 581 -494 
Q 688 -197 778 190 
Q 869 578 912 926 
Q 956 1275 956 1641 
Q 956 2384 797 3048 
Q 638 3713 209 4659 
L 806 4659 
Q 1278 3988 1539 3234 
Q 1800 2481 1800 1706 
Q 1800 1053 1594 306 
Q 1359 -531 822 -1347 
L 216 -1347 
z
" transform="scale(0.015625)"/>
    </defs>
    <use xlink:href="#Arial-BoldMT-45"/>
    <use xlink:href="#Arial-BoldMT-78" x="66.699219"/>
    <use xlink:href="#Arial-BoldMT-70" x="122.314453"/>
    <use xlink:href="#Arial-BoldMT-72" x="183.398438"/>
    <use xlink:href="#Arial-BoldMT-65" x="222.314453"/>
    <use xlink:href="#Arial-BoldMT-73" x="277.929688"/>
    <use xlink:href="#Arial-BoldMT-73" x="333.544922"/>
    <use xlink:href="#Arial-BoldMT-65" x="389.160156"/>
    <use xlink:href="#Arial-BoldMT-64" x="444.775391"/>
    <use xlink:href="#Arial-BoldMT-20" x="505.859375"/>
    <use xlink:href="#Arial-BoldMT-68" x="533.642578"/>
    <use xlink:href="#Arial-BoldMT-69" x="594.726562"/>
    <use xlink:href="#Arial-BoldMT-73" x="622.509766"/>
    <use xlink:href="#Arial-BoldMT-74" x="678.125"/>
    <use xlink:href="#Arial-BoldMT-6f" x="711.425781"/>
    <use xlink:href="#Arial-BoldMT-6e" x="772.509766"/>
    <use xlink:href="#Arial-BoldMT-65" x="833.59375"/>
    <use xlink:href="#Arial-BoldMT-20" x="889.208984"/>
    <use xlink:href="#Arial-BoldMT-67" x="916.992188"/>
    <use xlink:href="#Arial-BoldMT-65" x="978.076172"/>
    <use xlink:href="#Arial-BoldMT-6e" x="1033.691406"/>
    <use xlink:href="#Arial-BoldMT-65" x="1094.775391"/>
    <use xlink:href="#Arial-BoldMT-73" x="1150.390625"/>
    <use xlink:href="#Arial-BoldMT-20" x="1206.005859"/>
    <use xlink:href="#Arial-BoldMT-28" x="1233.789062"/>
    <use xlink:href="#Arial-BoldMT-6e" x="1267.089844"/>
    <use xlink:href="#Arial-BoldMT-3d" x="1328.173828"/>
    <use xlink:href="#Arial-BoldMT-35" x="1386.572266"/>
    <use xlink:href="#Arial-BoldMT-36" x="1442.1875"/>
    <use xlink:href="#Arial-BoldMT-29" x="1497.802734"/>
   </g>
  </g>
 </g>
 <defs>
  <clipPath id="p9707d7ec15">
   <rect x="110.602203" y="31.443264" width="171.58" height="29.715329"/>
  </clipPath>
  <clipPath id="pbd7dce8e9e">
   <rect x="110.602203" y="76.054097" width="171.58" height="29.715329"/>
  </clipPath>
  <clipPath id="p40bd1e0a06">
   <rect x="110.602203" y="120.664931" width="171.58" height="29.715329"/>
  </clipPath>
  <clipPath id="p77058b310f">
   <rect x="110.602203" y="165.275764" width="171.58" height="29.715329"/>
  </clipPath>
  <clipPath id="p3d63a32503">
   <rect x="110.602203" y="209.886597" width="171.58" height="29.715329"/>
  </clipPath>
  <clipPath id="p6ebf796481">
   <rect x="110.602203" y="254.497431" width="171.58" height="29.715329"/>
  </clipPath>
 </defs>
</svg>
